<?xml version="1.0" encoding="UTF-8"?>
<!-- Quiz App Logo — scalable SVG -->
<svg width="256" height="256" viewBox="0 0 256 256" fill="none" xmlns="http://www.w3.org/2000/svg" role="img" aria-labelledby="title desc">
  <title id="title">Quiz App Logo</title>
  <desc id="desc">Rounded chat bubble with a gradient question mark and a check badge symbolizing quizzes.</desc>

  <defs>
    <linearGradient id="g" x1="0" y1="0" x2="1" y2="1">
      <stop offset="0%" stop-color="#7C3AED"/>
      <stop offset="50%" stop-color="#4F46E5"/>
      <stop offset="100%" stop-color="#06B6D4"/>
    </linearGradient>
    <filter id="shadow" x="-20%" y="-20%" width="140%" height="140%" color-interpolation-filters="sRGB">
      <feDropShadow dx="0" dy="6" stdDeviation="8" flood-opacity="0.25"/>
    </filter>
  </defs>

  <!-- Chat bubble container -->
  <g filter="url(#shadow)">
    <path d="M48 40h160c13.255 0 24 10.745 24 24v88c0 13.255-10.745 24-24 24H121l-39 32c-6.18 5.06-16 .57-16-7.4V176H48c-13.255 0-24-10.745-24-24V64c0-13.255 10.745-24 24-24Z" fill="#0F172A"/>
  </g>

  <!-- Gradient question mark -->
  <path d="M128 68c-21.54 0-38 13.66-38 32.4 0 5.42 4.58 9.6 10.4 9.6 5.3 0 9.6-3.65 10.16-8.58 1.02-8.96 7.84-14.82 17.44-14.82 9.32 0 15.84 5.42 15.84 13.22 0 6.26-3.48 10.56-11.9 15.58-11.7 7-17.54 14.22-17.54 27.08v3.12c0 5.42 4.58 9.6 10.4 9.6h5.6c5.82 0 10.4-4.18 10.4-9.6v-1.78c0-8.62 2.72-11.38 11.16-16.42 12.72-7.6 19.08-16.58 19.08-29.92C170 83.48 152.02 68 128 68Z" fill="url(#g)"/>

  <!-- Dot under question mark -->
  <circle cx="128" cy="162" r="10" fill="url(#g)"/>

  <!-- Check badge -->
  <g transform="translate(170,160)">
    <circle cx="0" cy="0" r="30" fill="#10B981"/>
    <path d="M-12 2l7 7 15-16" fill="none" stroke="white" stroke-width="6" stroke-linecap="round" stroke-linejoin="round"/>
  </g>
</svg>
